# xmcd
#
# Track frame offsets: 
#        150
#        11544
#        23800
#        36940
#        49288
#        60092
#        73024
#        84589
#        96810
#        109615
#        122209
#        134998
#        148093
#        161016
#
# Disc length: 2299 seconds
#
# Revision: 4
# Processed by: cddbd v1.5.2PL0 Copyright (c) Steve Scherf et al.
# Submitted via: ExactAudioCopy v1.3
#
DISCID=c408f90e
DTITLE=Brownie McGhee - Blues pioneers, Disc 3
DYEAR=2007
DGENRE=Blues
TTITLE0=Got to find my little woman
TTITLE1=Me and my dog blues
TTITLE2=Back home blues
TTITLE3=Coal miner blues
TTITLE4=Baby let's have some fun
TTITLE5=Ain't no tellin'
TTITLE6=Million lonesome women
TTITLE7=So much trouble
TTITLE8=Good-bye now
TTITLE9=Be good to me
TTITLE10=I'm a black woman's man
TTITLE11=Woman I'm done
TTITLE12=Born for bad luck
TTITLE13=Step it up and go
EXTD=
EXTT0=
EXTT1=
EXTT2=
EXTT3=
EXTT4=
EXTT5=
EXTT6=
EXTT7=
EXTT8=
EXTT9=
EXTT10=
EXTT11=
EXTT12=
EXTT13=
PLAYORDER=
